<?xml version="1.0" standalone="no"?>
<!DOCTYPE svg PUBLIC "-//W3C//DTD SVG 20010904//EN"
 "http://www.w3.org/TR/2001/REC-SVG-20010904/DTD/svg10.dtd">
<svg version="1.0" xmlns="http://www.w3.org/2000/svg"
 width="640.000000pt" height="640.000000pt" viewBox="0 0 640.000000 640.000000"
 preserveAspectRatio="xMidYMid meet">

<g transform="translate(0.000000,640.000000) scale(0.100000,-0.100000)"
fill="#000000" stroke="none">
<path d="M2218 4257 c-47 -47 -82 -110 -103 -185 -32 -112 -8 -347 45 -457 28
-58 147 -178 247 -250 43 -30 101 -73 128 -95 28 -22 61 -48 74 -57 48 -34
115 -109 162 -181 46 -70 49 -72 55 -47 4 15 4 93 1 173 -5 153 -27 255 -75
349 -24 46 -174 192 -295 287 -92 72 -147 142 -187 240 -16 40 -20 60 -12 68
7 7 6 20 -5 43 -13 27 -14 43 -5 87 5 29 9 54 7 56 -2 2 -18 -12 -37 -31z"/>
<path d="M4680 3403 c-40 -14 -64 -27 -62 -35 6 -20 25 -29 52 -23 14 4 45 9
69 13 52 8 60 21 29 48 -23 20 -23 20 -88 -3z"/>
<path d="M1640 3248 c0 -60 25 -212 46 -288 38 -130 92 -237 175 -344 28 -36
116 -135 138 -154 14 -13 42 -38 61 -55 48 -45 117 -98 159 -124 156 -95 332
-174 420 -188 l44 -7 -7 38 c-33 188 -155 385 -325 527 -47 40 -88 75 -91 78
-11 14 -147 97 -170 104 -68 20 -181 99 -256 179 -98 104 -93 98 -144 184 -24
40 -45 72 -47 72 -1 0 -3 -10 -3 -22z"/>
<path d="M4060 3211 c-45 -9 -77 -29 -109 -65 -59 -67 -62 -131 -11 -208 24
-36 116 -118 132 -118 3 0 8 17 12 38 5 37 44 84 76 94 10 3 6 10 -15 23 -46
29 -75 57 -92 88 -18 35 -8 50 15 22 21 -24 88 -77 122 -95 14 -8 51 -17 83
-21 58 -7 127 -43 127 -66 0 -10 -168 -124 -258 -175 -44 -24 -256 -130 -292
-145 -22 -9 -30 -5 -73 33 -26 23 -67 52 -91 63 -57 28 -145 46 -180 37 -27
-7 -27 -8 -12 -31 25 -38 20 -44 -36 -47 l-53 -3 -7 -48 c-4 -27 -9 -51 -12
-54 -3 -4 -30 10 -61 30 -30 21 -58 37 -61 37 -3 0 -28 -18 -54 -40 -26 -22
-51 -40 -54 -40 -3 0 -6 18 -6 40 l0 40 -55 0 c-59 0 -67 9 -44 52 14 27 9 30
-51 30 -92 -1 -121 -18 -198 -112 l-19 -24 4 35 c2 19 9 53 15 76 13 51 5 81
-16 64 -48 -40 -71 -181 -56 -345 26 -274 104 -406 249 -418 30 -3 36 1 41 22
l6 25 244 6 c252 6 297 12 460 55 275 74 522 216 725 418 153 153 263 361 295
561 6 39 13 80 16 93 6 32 -7 28 -68 -21 -29 -24 -100 -79 -156 -121 -94 -71
-106 -77 -128 -67 -61 28 -80 121 -36 181 l20 27 -66 32 c-92 44 -188 59 -272
42z"/>
<path d="M3670 3092 c-26 -21 -20 -42 11 -42 11 0 31 -11 45 -25 31 -31 70
-33 77 -5 4 16 -5 29 -41 55 -55 40 -62 41 -92 17z"/>
<path d="M3281 2884 c-25 -21 -31 -34 -31 -64 0 -45 -14 -58 -39 -36 -25 22
-28 20 -36 -16 -11 -49 -12 -49 -67 -27 -28 11 -53 18 -55 15 -3 -3 7 -20 21
-39 l26 -34 -21 -27 c-26 -33 -22 -38 22 -26 51 15 67 12 71 -12 4 -31 19 -32
52 -3 36 31 35 31 80 0 20 -14 39 -25 41 -25 3 0 8 15 13 33 8 31 10 32 65 32
61 -1 69 7 35 34 -19 16 -20 21 -10 51 7 18 10 35 8 37 -2 3 -18 -3 -35 -11
-44 -23 -61 -20 -61 10 0 23 -3 25 -26 20 -24 -6 -25 -5 -19 31 4 21 9 45 11
55 8 28 -13 29 -45 2z"/>
<path d="M1022 1853 c-8 -3 -22 -24 -31 -47 -10 -22 -35 -63 -56 -91 -22 -27
-71 -93 -111 -146 -40 -53 -103 -124 -140 -158 -37 -34 -65 -63 -63 -65 29
-25 108 -33 192 -20 42 7 46 18 17 49 l-20 22 23 34 23 34 177 3 178 2 30 -29
c38 -38 37 -49 -6 -67 -19 -8 -35 -18 -35 -23 0 -32 286 -36 327 -5 17 11 15
13 -12 23 -63 23 -85 45 -237 242 -86 112 -167 212 -180 221 -27 20 -58 28
-76 21z m86 -234 c28 -36 49 -69 45 -73 -12 -12 -223 -7 -223 6 0 12 65 101
95 132 10 10 21 14 25 9 3 -4 30 -38 58 -74z"/>
<path d="M5013 1843 c-24 -9 -13 -29 29 -53 49 -29 218 -188 218 -206 0 -16
-198 -194 -230 -206 -19 -7 -33 -5 -58 8 -29 16 -37 16 -65 4 -38 -16 -186
-25 -199 -12 -16 16 -13 132 3 143 22 14 85 10 130 -8 40 -16 42 -15 55 2 31
42 2 93 -45 79 -14 -5 -55 -9 -91 -9 l-65 0 0 30 c0 29 2 30 45 29 25 0 71 -2
104 -5 48 -3 60 -1 70 14 9 15 7 21 -9 33 -17 13 -58 15 -260 12 -288 -4 -280
-1 -391 -129 -43 -49 -81 -89 -85 -89 -3 0 -41 41 -84 91 -107 126 -105 126
-384 128 -197 1 -226 0 -242 -15 -11 -10 -19 -26 -19 -36 0 -18 5 -19 64 -13
59 7 65 6 76 -15 8 -14 11 -60 8 -130 -2 -86 -7 -112 -21 -127 -9 -11 -14 -23
-10 -26 8 -9 158 -9 166 -1 3 4 -3 18 -13 32 -17 21 -20 40 -20 131 0 76 4
113 14 126 14 19 16 19 67 2 52 -16 54 -16 76 5 19 17 25 19 38 8 12 -10 15
-37 15 -132 l0 -119 -35 -20 c-19 -12 -32 -25 -29 -30 7 -12 204 -12 204 1 0
5 -13 16 -29 24 -32 17 -43 63 -32 129 l6 38 76 -75 c42 -42 82 -76 90 -76 7
0 51 39 96 88 l83 87 0 -87 c0 -87 0 -88 -30 -103 -16 -9 -30 -19 -30 -24 0
-4 28 -11 61 -15 78 -8 836 -8 867 0 25 7 29 29 7 38 -8 3 -15 12 -15 19 0 14
131 137 145 137 14 0 135 -113 135 -126 0 -8 -5 -23 -12 -34 -7 -10 -9 -23 -4
-27 10 -10 226 -17 283 -8 56 8 57 31 1 46 -24 6 -56 18 -73 26 -34 17 -225
202 -225 218 0 15 129 139 165 159 17 9 47 22 68 29 21 7 38 17 38 22 -1 6
-59 11 -136 13 -113 2 -135 0 -135 -12 0 -8 10 -22 23 -31 l22 -16 -55 -49
c-30 -27 -60 -50 -65 -50 -6 0 -33 22 -60 50 -48 49 -48 50 -30 70 10 11 15
23 11 27 -16 16 -241 29 -273 16z m-441 -328 c-2 -71 -7 -134 -11 -138 -4 -4
-23 -10 -43 -13 -60 -10 -68 8 -68 150 0 67 3 126 7 130 4 4 32 6 63 4 l55 -3
-3 -130z"/>
<path d="M3105 1699 c-122 -16 -211 -64 -240 -129 -21 -46 -16 -97 14 -138 27
-38 124 -89 203 -106 59 -13 41 -14 -267 -16 -181 -1 -360 -2 -397 -2 -58 1
-68 -2 -67 -16 0 -11 2 -12 6 -4 2 6 10 9 16 5 12 -8 18 -9 53 -11 11 -1 29
-10 40 -19 23 -21 104 -63 120 -63 6 0 17 -6 23 -14 7 -8 62 -26 122 -41 108
-26 118 -27 332 -22 373 8 594 28 862 77 52 9 229 56 255 67 48 21 105 31 112
20 5 -8 8 -5 8 6 0 13 -7 18 -22 17 -83 -7 -1056 4 -1019 11 74 14 138 39 157
60 32 35 4 39 -96 13 -120 -32 -201 -34 -257 -6 -58 30 -83 65 -83 118 0 83
41 125 139 144 73 14 133 2 198 -37 31 -18 64 -32 72 -31 23 5 25 41 4 67 -32
39 -180 65 -288 50z"/>
<path d="M1687 1680 c-104 -33 -153 -76 -171 -152 -21 -90 96 -180 272 -210
59 -10 79 -8 166 10 130 28 148 40 144 95 l-3 42 -102 0 c-109 0 -130 -10 -67
-32 49 -17 50 -19 29 -43 -15 -17 -31 -20 -99 -20 -90 0 -144 19 -184 63 -51
55 -32 151 38 192 29 16 53 20 132 20 93 0 98 -1 143 -33 53 -37 78 -38 83 -4
8 58 -78 92 -227 91 -65 0 -115 -6 -154 -19z"/>
<path d="M2170 1693 c-47 -6 -57 -18 -29 -34 13 -6 27 -17 31 -23 4 -6 8 -62
8 -123 0 -97 -3 -116 -19 -132 -10 -10 -25 -21 -32 -23 -10 -4 -11 -9 -3 -17
14 -16 216 -11 221 5 2 7 -10 17 -27 22 -29 10 -30 14 -30 66 0 30 5 58 10 61
6 4 40 -20 76 -52 36 -32 86 -71 111 -88 47 -30 47 -30 190 -29 79 0 145 3
148 6 3 2 -4 22 -15 43 -38 75 -23 272 22 287 6 2 9 9 5 15 -9 14 -183 17
-192 3 -3 -5 3 -22 14 -36 18 -23 21 -41 21 -131 0 -124 -7 -143 -55 -143 -28
0 -47 10 -93 53 -89 79 -89 81 -37 112 74 43 71 96 -8 137 -36 19 -60 23 -162
24 -66 1 -136 0 -155 -3z m243 -61 c42 -37 8 -73 -72 -75 l-46 -2 -3 43 c-3
36 0 44 20 52 29 11 77 3 101 -18z"/>
<path d="M2178 1303 c12 -2 32 -2 45 0 12 2 2 4 -23 4 -25 0 -35 -2 -22 -4z"/>
<path d="M2283 1303 c9 -2 25 -2 35 0 9 3 1 5 -18 5 -19 0 -27 -2 -17 -5z"/>
<path d="M1640 490 c-8 -5 -25 -10 -37 -10 -14 0 -23 -6 -23 -15 0 -8 -7 -15
-16 -15 -18 0 -73 -55 -142 -145 -55 -71 -130 -145 -146 -145 -6 0 -20 -6 -31
-13 -11 -7 -47 -19 -80 -27 -33 -7 -71 -19 -85 -26 -14 -6 -54 -17 -90 -24
-86 -16 -163 -42 -168 -57 -3 -10 185 -13 917 -13 l921 0 0 40 c0 33 3 40 20
40 17 0 20 7 20 40 0 22 3 40 8 40 4 0 12 17 19 38 12 40 7 155 -7 147 -5 -3
-19 8 -32 24 -25 29 -67 43 -128 43 -57 -1 -114 -14 -123 -28 -4 -8 -15 -14
-24 -14 -9 0 -22 -8 -29 -17 -7 -10 -18 -18 -25 -18 -8 0 -19 -11 -26 -25 -7
-14 -13 -18 -13 -10 0 10 -5 7 -16 -8 -8 -12 -19 -20 -24 -17 -5 3 -15 -3 -22
-15 -7 -11 -21 -20 -32 -20 -10 0 -24 -7 -30 -15 -6 -8 -33 -20 -61 -27 -27
-7 -53 -17 -56 -21 -10 -14 -63 15 -74 41 -5 12 -13 22 -17 22 -5 0 -8 11 -8
24 0 35 -11 60 -20 46 -4 -6 -12 8 -20 33 -8 31 -24 55 -51 78 -21 18 -39 38
-39 44 0 6 -14 12 -31 13 -17 1 -39 7 -49 12 -24 13 -110 13 -130 0z"/>
<path d="M5635 470 c-27 -3 -61 -12 -75 -19 -16 -9 -79 -16 -185 -21 -90 -3
-169 -11 -181 -18 -12 -6 -36 -13 -52 -14 -23 -2 -32 -8 -37 -25 -3 -14 -13
-23 -25 -23 -11 0 -20 -7 -20 -15 0 -8 -6 -15 -13 -15 -32 0 -44 -169 -21
-293 l6 -27 684 0 684 0 0 65 c0 63 -1 65 -22 60 -95 -22 -238 -45 -280 -45
-74 0 -169 47 -192 94 -9 20 -23 36 -31 36 -9 0 -17 15 -21 39 -4 22 -15 49
-25 60 -11 11 -19 24 -19 28 0 4 -5 25 -10 45 -9 30 -20 42 -63 65 -44 23 -60
27 -102 23z"/>
<path d="M4504 348 c-5 -13 -7 -27 -5 -32 3 -12 -21 -69 -32 -77 -6 -4 -5 -51
3 -123 l13 -116 29 0 c26 0 28 3 28 40 0 33 3 40 20 40 11 0 20 6 20 14 0 7
13 40 30 72 16 32 30 66 30 75 0 51 -64 135 -81 107 -6 -9 -10 -8 -15 5 -9 24
-31 21 -40 -5z"/>
<path d="M0 178 l0 -178 210 0 210 0 0 40 c0 40 -15 55 -23 23 -3 -10 -5 -2
-6 17 -2 53 -12 80 -29 80 -8 0 -39 13 -68 29 -28 17 -54 27 -58 24 -3 -3 -8
2 -12 11 -4 10 -18 16 -39 16 -20 0 -35 6 -39 15 -3 8 -14 15 -25 15 -11 0
-23 5 -26 10 -4 6 -10 8 -15 5 -5 -3 -14 4 -20 15 -6 11 -17 20 -25 20 -8 0
-19 8 -24 18 -7 12 -10 -35 -11 -160z"/>
<path d="M4440 40 c0 -22 5 -40 10 -40 6 0 10 18 10 40 0 22 -4 40 -10 40 -5
0 -10 -18 -10 -40z"/>
</g>
</svg>
